<svg version="1.1" id="Layer_1" xmlns="http://www.w3.org/2000/svg" xmlns:xlink="http://www.w3.org/1999/xlink" x="0px" y="0px"
	 width="24" height="25" viewBox="0 0 3125 3127" enable-background="new 0 0 3125 3127" xml:space="preserve">
<path fill="#FFFFFF" opacity="1.000000" stroke="none" 
	d="
M1978.000000,3130.000000 
	C1318.666870,3130.000000 660.333740,3130.000000 2.000442,3130.000000 
	C2.000294,2087.333740 2.000294,1044.667725 2.000147,2.001141 
	C1043.999146,2.000761 2085.998291,2.000761 3127.998047,2.000380 
	C3127.998779,1044.665527 3127.998779,2087.331055 3127.999512,3129.998291 
	C2745.000000,3130.000000 2362.000000,3130.000000 1978.000000,3130.000000 
M1572.061890,2576.068359 
	C1572.061890,2576.068359 1572.337524,2576.387207 1573.412964,2576.088867 
	C1573.505127,2575.388184 1573.597168,2574.687744 1573.943848,2573.000732 
	C1573.956543,2572.661377 1573.969238,2572.322021 1574.718994,2571.516113 
	C1575.179565,2570.946777 1575.125854,2570.431152 1575.107666,2568.424561 
	C1575.294678,2566.253418 1575.481689,2564.082520 1576.895874,2560.989014 
	C1577.425049,2558.395020 1577.860596,2555.778076 1578.496704,2553.210693 
	C1592.078491,2498.396729 1605.081421,2443.430664 1619.452515,2388.824219 
	C1633.668213,2334.809082 1650.214478,2281.431885 1669.392822,2228.958496 
	C1680.801392,2197.744385 1692.643433,2166.598877 1706.215332,2136.284180 
	C1730.076416,2082.987549 1759.789429,2032.916504 1794.023193,1985.558960 
	C1822.929077,1945.571899 1855.385010,1908.600830 1889.901245,1873.453125 
	C1903.632568,1859.470459 1918.482178,1846.569458 1933.048218,1833.425903 
	C1970.412231,1799.710815 2010.480103,1769.454224 2051.874756,1740.898315 
	C2106.776855,1703.024048 2165.273438,1671.161987 2223.191162,1638.334229 
	C2271.832520,1610.764404 2320.556396,1583.340454 2369.244873,1555.853760 
	C2413.295898,1530.985107 2457.351562,1506.125732 2501.398193,1481.249390 
	C2525.162354,1467.828003 2548.893799,1454.348389 2572.684814,1440.974731 
	C2576.494141,1438.833252 2579.001709,1436.278809 2578.282471,1431.504639 
	C2577.988037,1429.549683 2578.235352,1427.513306 2578.235352,1425.513916 
	C2578.235352,1236.576782 2578.236328,1047.639771 2578.229492,858.702637 
	C2578.229492,855.038391 2578.140625,851.374084 2577.780273,847.046814 
	C2577.179688,847.138550 2576.579102,847.230347 2574.744385,847.931152 
	C2572.640137,848.816956 2570.535645,849.702759 2566.846924,850.214844 
	C2564.598633,850.718140 2562.317871,851.109192 2560.106689,851.741882 
	C2534.568848,859.047791 2509.165527,866.863464 2483.482910,873.617859 
	C2439.524170,885.178894 2395.460938,896.364380 2351.309570,907.167664 
	C2318.781738,915.126831 2286.187012,922.939453 2253.364014,929.533569 
	C2208.239258,938.599182 2163.187256,948.352234 2117.169189,952.175476 
	C2095.386963,953.985107 2073.640625,957.171326 2051.839355,957.563049 
	C2026.609131,958.016418 2001.356812,958.206360 1976.030640,956.483276 
	C1947.884277,954.568542 1919.790527,952.726379 1892.004272,947.969543 
	C1864.913452,943.331665 1837.825562,938.451660 1811.024048,932.403259 
	C1773.421875,923.917358 1736.627930,912.497375 1700.392944,899.258484 
	C1663.197632,885.668701 1626.653198,870.520508 1590.997559,853.349243 
	C1566.106323,841.362061 1541.620361,828.503662 1517.235840,815.504456 
	C1500.810425,806.748230 1484.839111,797.133972 1468.733887,787.784424 
	C1447.741089,775.597351 1426.845459,763.242737 1405.856079,751.049622 
	C1374.510010,732.840088 1343.079834,714.774902 1311.757812,696.524231 
	C1282.453857,679.449585 1253.264282,662.178894 1223.986938,645.058777 
	C1196.716064,629.112061 1169.387817,613.263306 1142.099243,597.346924 
	C1117.682129,583.105286 1093.287476,568.825073 1068.874512,554.576355 
	C1065.647583,552.693054 1062.842651,551.579407 1058.819336,554.010681 
	C1040.034790,565.362061 1020.926208,576.175415 1002.013916,587.317810 
	C963.050415,610.273682 924.192932,633.409851 885.190552,656.299255 
	C840.449463,682.556641 795.555115,708.552734 750.809204,734.802063 
	C714.960571,755.831787 679.259827,777.113464 643.445496,798.201965 
	C615.933594,814.401733 588.359619,830.496338 560.775757,846.573303 
	C557.724792,848.351501 554.911987,849.993286 556.741394,855.312561 
	C558.536804,856.773621 560.332214,858.234680 563.231995,860.464050 
	C565.174377,862.284424 567.105591,864.116882 569.060791,865.923340 
	C606.681763,900.683167 644.845642,934.878357 681.755432,970.377502 
	C710.539490,998.061523 738.343201,1026.829102 765.522583,1056.099365 
	C793.327820,1086.043579 820.655884,1116.511719 846.735779,1147.958862 
	C888.285889,1198.060059 923.228333,1252.645020 952.358032,1310.911133 
	C975.306824,1356.813843 994.225952,1404.314087 1008.999695,1453.447021 
	C1021.445312,1494.837036 1031.769653,1536.748413 1038.319458,1579.507935 
	C1041.220459,1598.447388 1043.871582,1617.436523 1046.080200,1636.467529 
	C1048.516235,1657.457520 1050.314331,1678.521606 1052.327515,1700.543335 
	C1052.479126,1701.230469 1052.857666,1701.753296 1053.642334,1703.958252 
	C1054.018677,1713.950928 1054.395020,1723.943481 1054.595947,1734.883301 
	C1054.753418,1735.553101 1055.135498,1736.050659 1055.697266,1738.202881 
	C1055.697266,1921.750854 1055.697266,2105.298828 1055.697266,2288.889404 
	C1059.811157,2291.281494 1063.206299,2293.329834 1066.669312,2295.256348 
	C1079.452881,2302.367676 1092.284790,2309.392822 1105.052368,2316.532959 
	C1180.789307,2358.889160 1256.505615,2401.282227 1332.243774,2443.635742 
	C1383.317505,2472.196289 1434.385620,2500.767090 1485.516602,2529.224854 
	C1513.693604,2544.906982 1541.994873,2560.365723 1570.509399,2576.622314 
	C1571.101929,2576.556396 1571.694336,2576.490723 1572.061890,2576.068359 
z"/>
<path fill="#CFC0FF" opacity="1.000000" stroke="none" 
	d="
M556.284241,854.236206 
	C554.911987,849.993286 557.724792,848.351501 560.775757,846.573303 
	C588.359619,830.496338 615.933594,814.401733 643.445496,798.201965 
	C679.259827,777.113464 714.960571,755.831787 750.809204,734.802063 
	C795.555115,708.552734 840.449463,682.556641 885.190552,656.299255 
	C924.192932,633.409851 963.050415,610.273682 1002.013916,587.317810 
	C1020.926208,576.175415 1040.034790,565.362061 1058.819336,554.010681 
	C1062.842651,551.579407 1065.647583,552.693054 1068.874512,554.576355 
	C1093.287476,568.825073 1117.682129,583.105286 1142.099243,597.346924 
	C1169.387817,613.263306 1196.716064,629.112061 1223.986938,645.058777 
	C1253.264282,662.178894 1282.453857,679.449585 1311.757812,696.524231 
	C1343.079834,714.774902 1374.510010,732.840088 1405.856079,751.049622 
	C1426.845459,763.242737 1447.741089,775.597351 1468.733887,787.784424 
	C1484.839111,797.133972 1500.810425,806.748230 1517.235840,815.504456 
	C1541.620361,828.503662 1566.106323,841.362061 1590.997559,853.349243 
	C1626.653198,870.520508 1663.197632,885.668701 1700.392944,899.258484 
	C1736.627930,912.497375 1773.421875,923.917358 1811.024048,932.403259 
	C1837.825562,938.451660 1864.913452,943.331665 1892.004272,947.969543 
	C1919.790527,952.726379 1947.884277,954.568542 1976.030640,956.483276 
	C2001.356812,958.206360 2026.609131,958.016418 2051.839355,957.563049 
	C2073.640625,957.171326 2095.386963,953.985107 2117.169189,952.175476 
	C2163.187256,948.352234 2208.239258,938.599182 2253.364014,929.533569 
	C2286.187012,922.939453 2318.781738,915.126831 2351.309570,907.167664 
	C2395.460938,896.364380 2439.524170,885.178894 2483.482910,873.617859 
	C2509.165527,866.863464 2534.568848,859.047791 2560.106689,851.741882 
	C2562.317871,851.109192 2564.598633,850.718140 2567.388184,851.013245 
	C2555.636230,859.018005 2543.451416,866.416870 2531.028564,873.392639 
	C2500.589355,890.485535 2469.977539,907.272034 2439.551025,924.387329 
	C2400.437744,946.389404 2361.485840,968.678101 2322.373047,990.680786 
	C2291.657227,1007.959595 2260.742432,1024.884399 2230.025146,1042.160156 
	C2190.909180,1064.159302 2151.851074,1086.261841 2112.864014,1108.488281 
	C2071.001709,1132.353760 2029.255371,1156.422241 1987.433594,1180.359009 
	C1986.038696,1181.157593 1984.375610,1181.487549 1982.021484,1182.070435 
	C1975.961914,1184.177979 1970.585449,1185.969727 1965.496216,1188.370239 
	C1934.787964,1202.854614 1903.103149,1214.904663 1871.013916,1225.849731 
	C1854.697998,1231.414917 1838.017456,1235.950806 1821.394897,1240.567383 
	C1800.000244,1246.509399 1778.667847,1252.834961 1757.002930,1257.607300 
	C1724.669922,1264.729492 1692.160278,1271.123169 1659.105591,1274.228271 
	C1634.058960,1276.580933 1609.082031,1280.956787 1584.012451,1281.479248 
	C1547.129883,1282.248047 1510.141357,1284.094360 1473.267578,1280.108276 
	C1452.856689,1277.901733 1432.290527,1276.862671 1411.997803,1273.902466 
	C1385.806030,1270.081543 1359.640259,1265.674438 1333.796753,1260.000488 
	C1312.161255,1255.250244 1290.875122,1248.739868 1269.675537,1242.223999 
	C1251.271484,1236.567261 1233.000366,1230.340454 1215.046631,1223.393433 
	C1196.461914,1216.201904 1178.334229,1207.830322 1159.994141,1200.004150 
	C1158.031372,1199.166626 1155.980957,1196.941772 1153.322510,1199.820801 
	C1142.592407,1193.151611 1132.763428,1186.254639 1122.414917,1180.253296 
	C1067.997437,1148.694214 1013.437744,1117.380493 958.948425,1085.945068 
	C900.999695,1052.513916 843.073303,1019.043823 785.139404,985.586914 
	C730.951721,954.293518 676.783508,922.966492 622.572449,891.713684 
	C602.392822,880.080017 582.116089,868.614746 561.613892,856.607300 
	C559.657471,855.506714 557.970886,854.871460 556.284241,854.236206 
z"/>
<path fill="#9273FF" opacity="1.000000" stroke="none" 
	d="
M1982.837402,1182.035889 
	C1984.375610,1181.487549 1986.038696,1181.157593 1987.433594,1180.359009 
	C2029.255371,1156.422241 2071.001709,1132.353760 2112.864014,1108.488281 
	C2151.851074,1086.261841 2190.909180,1064.159302 2230.025146,1042.160156 
	C2260.742432,1024.884399 2291.657227,1007.959595 2322.373047,990.680786 
	C2361.485840,968.678101 2400.437744,946.389404 2439.551025,924.387329 
	C2469.977539,907.272034 2500.589355,890.485535 2531.028564,873.392639 
	C2543.451416,866.416870 2555.636230,859.018005 2568.180420,851.200073 
	C2570.535645,849.702759 2572.640137,848.816956 2575.882324,847.765137 
	C2577.378174,847.636047 2577.735596,847.672974 2578.093018,847.709839 
	C2578.140625,851.374084 2578.229492,855.038391 2578.229492,858.702637 
	C2578.236328,1047.639771 2578.235352,1236.576782 2578.235352,1425.513916 
	C2578.235352,1427.513306 2577.988037,1429.549683 2578.282471,1431.504639 
	C2579.001709,1436.278809 2576.494141,1438.833252 2572.684814,1440.974731 
	C2548.893799,1454.348389 2525.162354,1467.828003 2501.398193,1481.249390 
	C2457.351562,1506.125732 2413.295898,1530.985107 2369.244873,1555.853760 
	C2320.556396,1583.340454 2271.832520,1610.764404 2223.191162,1638.334229 
	C2165.273438,1671.161987 2106.776855,1703.024048 2051.874756,1740.898315 
	C2010.480103,1769.454224 1970.412231,1799.710815 1933.048218,1833.425903 
	C1918.482178,1846.569458 1903.632568,1859.470459 1889.901245,1873.453125 
	C1855.385010,1908.600830 1822.929077,1945.571899 1794.023193,1985.558960 
	C1759.789429,2032.916504 1730.076416,2082.987549 1706.215332,2136.284180 
	C1692.643433,2166.598877 1680.801392,2197.744385 1669.392822,2228.958496 
	C1650.214478,2281.431885 1633.668213,2334.809082 1619.452515,2388.824219 
	C1605.081421,2443.430664 1592.078491,2498.396729 1578.496704,2553.210693 
	C1577.860596,2555.778076 1577.425049,2558.395020 1575.712402,2560.903076 
	C1573.727905,2552.923828 1572.194824,2545.027344 1572.232788,2537.137939 
	C1573.233765,2330.077148 1569.786255,2123.003418 1573.972290,1915.128540 
	C1574.479370,1908.103149 1575.008667,1901.901611 1575.619507,1894.809326 
	C1577.088745,1867.031006 1581.350586,1840.519653 1585.650757,1813.980103 
	C1592.729004,1770.294800 1603.191284,1727.423706 1616.082520,1685.156372 
	C1636.815918,1617.175903 1664.177856,1551.964966 1698.745361,1489.791626 
	C1718.017334,1455.129272 1739.322754,1421.798950 1763.003540,1390.018188 
	C1793.046753,1349.699097 1825.823730,1311.815430 1862.721191,1277.484863 
	C1884.171875,1257.526733 1906.054077,1238.165405 1929.561157,1220.697266 
	C1947.171875,1207.610840 1965.068237,1194.908936 1982.837402,1182.035889 
z"/>
<path fill="#6837EE" opacity="1.000000" stroke="none" 
	d="
M1573.994507,1915.952515 
	C1569.786255,2123.003418 1573.233765,2330.077148 1572.232788,2537.137939 
	C1572.194824,2545.027344 1573.727905,2552.923828 1575.098877,2561.364258 
	C1575.481689,2564.082520 1575.294678,2566.253418 1574.593262,2569.476562 
	C1573.828247,2570.998535 1573.796021,2571.483154 1573.981934,2571.982666 
	C1573.969238,2572.322021 1573.956543,2572.661377 1573.413330,2573.775879 
	C1572.394043,2575.072021 1572.212280,2575.684082 1572.337524,2576.387207 
	C1572.337524,2576.387207 1572.061890,2576.068359 1571.680908,2576.043457 
	C1570.946655,2575.987061 1570.593384,2575.956055 1570.240112,2575.925293 
	C1541.994873,2560.365723 1513.693604,2544.906982 1485.516602,2529.224854 
	C1434.385620,2500.767090 1383.317505,2472.196289 1332.243774,2443.635742 
	C1256.505615,2401.282227 1180.789307,2358.889160 1105.052368,2316.532959 
	C1092.284790,2309.392822 1079.452881,2302.367676 1066.669312,2295.256348 
	C1063.206299,2293.329834 1059.811157,2291.281494 1055.697266,2288.889404 
	C1055.697266,2105.298828 1055.697266,1921.750854 1055.766602,1736.817627 
	C1055.725830,1734.759521 1055.370972,1734.260864 1054.771362,1733.936157 
	C1054.395020,1723.943481 1054.018677,1713.950928 1053.670166,1702.525879 
	C1053.262329,1700.580078 1052.826416,1700.066650 1052.390503,1699.553345 
	C1050.314331,1678.521606 1048.516235,1657.457520 1046.080200,1636.467529 
	C1043.871582,1617.436523 1041.220459,1598.447388 1038.319458,1579.507935 
	C1031.769653,1536.748413 1021.445312,1494.837036 1008.999695,1453.447021 
	C994.225952,1404.314087 975.306824,1356.813843 952.358032,1310.911133 
	C923.228333,1252.645020 888.285889,1198.060059 846.735779,1147.958862 
	C820.655884,1116.511719 793.327820,1086.043579 765.522583,1056.099365 
	C738.343201,1026.829102 710.539490,998.061523 681.755432,970.377502 
	C644.845642,934.878357 606.681763,900.683167 569.060791,865.923340 
	C567.105591,864.116882 565.174377,862.284424 562.655396,859.420898 
	C562.013794,857.942749 561.948730,857.507751 561.883667,857.072693 
	C582.116089,868.614746 602.392822,880.080017 622.572449,891.713684 
	C676.783508,922.966492 730.951721,954.293518 785.139404,985.586914 
	C843.073303,1019.043823 900.999695,1052.513916 958.948425,1085.945068 
	C1013.437744,1117.380493 1067.997437,1148.694214 1122.414917,1180.253296 
	C1132.763428,1186.254639 1142.592407,1193.151611 1153.763306,1200.323242 
	C1228.318970,1251.675171 1293.924072,1311.036255 1352.322388,1378.485474 
	C1417.248657,1453.474121 1470.137939,1535.964966 1508.650146,1627.498901 
	C1527.234131,1671.668823 1542.533203,1716.935059 1552.462158,1763.861816 
	C1556.918823,1784.924805 1560.678467,1806.161133 1563.933838,1827.444458 
	C1566.677734,1845.383423 1568.235474,1863.503906 1570.296875,1882.033325 
	C1570.426514,1883.201172 1570.802124,1883.715576 1571.514648,1884.909180 
	C1571.794067,1889.148438 1571.961426,1892.544434 1572.048706,1896.834473 
	C1572.643921,1903.803223 1573.319214,1909.877808 1573.994507,1915.952515 
z"/>
<path fill="#9273FF" opacity="1.000000" stroke="none" 
	d="
M561.613892,856.607300 
	C561.948730,857.507751 562.013794,857.942749 562.103210,859.036743 
	C560.332214,858.234680 558.536804,856.773621 556.512817,854.774414 
	C557.970886,854.871460 559.657471,855.506714 561.613892,856.607300 
z"/>
<path fill="#E4DCFF" opacity="1.000000" stroke="none" 
	d="
M2577.936523,847.378296 
	C2577.735596,847.672974 2577.378174,847.636047 2576.499512,847.460571 
	C2576.579102,847.230347 2577.179688,847.138550 2577.936523,847.378296 
z"/>
<path fill="#CFC0FF" opacity="1.000000" stroke="none" 
	d="
M1052.359009,1700.048340 
	C1052.826416,1700.066650 1053.262329,1700.580078 1053.580566,1701.602783 
	C1052.857666,1701.753296 1052.479126,1701.230469 1052.359009,1700.048340 
z"/>
<path fill="#8E69F2" opacity="1.000000" stroke="none" 
	d="
M1054.683594,1734.409668 
	C1055.370972,1734.260864 1055.725830,1734.759521 1055.789062,1735.904053 
	C1055.135498,1736.050659 1054.753418,1735.553101 1054.683594,1734.409668 
z"/>
<path fill="#9273FF" opacity="1.000000" stroke="none" 
	d="
M1574.350464,2571.749512 
	C1573.796021,2571.483154 1573.828247,2570.998535 1574.318359,2570.249023 
	C1575.125854,2570.431152 1575.179565,2570.946777 1574.350464,2571.749512 
z"/>
<path fill="#7F57F7" opacity="1.000000" stroke="none" 
	d="
M1572.875244,2576.238037 
	C1572.212280,2575.684082 1572.394043,2575.072021 1573.286011,2574.269043 
	C1573.597168,2574.687744 1573.505127,2575.388184 1572.875244,2576.238037 
z"/>
<path fill="#7F57F7" opacity="1.000000" stroke="none" 
	d="
M1570.374756,2576.273926 
	C1570.593384,2575.956055 1570.946655,2575.987061 1571.793457,2576.221680 
	C1571.694336,2576.490723 1571.101929,2576.556396 1570.374756,2576.273926 
z"/>
<path fill="#FEFEFF" opacity="1.000000" stroke="none" 
	d="
M1570.318115,1881.544067 
	C1568.235474,1863.503906 1566.677734,1845.383423 1563.933838,1827.444458 
	C1560.678467,1806.161133 1556.918823,1784.924805 1552.462158,1763.861816 
	C1542.533203,1716.935059 1527.234131,1671.668823 1508.650146,1627.498901 
	C1470.137939,1535.964966 1417.248657,1453.474121 1352.322388,1378.485474 
	C1293.924072,1311.036255 1228.318970,1251.675171 1154.424561,1200.508789 
	C1155.980957,1196.941772 1158.031372,1199.166626 1159.994141,1200.004150 
	C1178.334229,1207.830322 1196.461914,1216.201904 1215.046631,1223.393433 
	C1233.000366,1230.340454 1251.271484,1236.567261 1269.675537,1242.223999 
	C1290.875122,1248.739868 1312.161255,1255.250244 1333.796753,1260.000488 
	C1359.640259,1265.674438 1385.806030,1270.081543 1411.997803,1273.902466 
	C1432.290527,1276.862671 1452.856689,1277.901733 1473.267578,1280.108276 
	C1510.141357,1284.094360 1547.129883,1282.248047 1584.012451,1281.479248 
	C1609.082031,1280.956787 1634.058960,1276.580933 1659.105591,1274.228271 
	C1692.160278,1271.123169 1724.669922,1264.729492 1757.002930,1257.607300 
	C1778.667847,1252.834961 1800.000244,1246.509399 1821.394897,1240.567383 
	C1838.017456,1235.950806 1854.697998,1231.414917 1871.013916,1225.849731 
	C1903.103149,1214.904663 1934.787964,1202.854614 1965.496216,1188.370239 
	C1970.585449,1185.969727 1975.961914,1184.177979 1982.021484,1182.070312 
	C1965.068237,1194.908936 1947.171875,1207.610840 1929.561157,1220.697266 
	C1906.054077,1238.165405 1884.171875,1257.526733 1862.721191,1277.484863 
	C1825.823730,1311.815430 1793.046753,1349.699097 1763.003540,1390.018188 
	C1739.322754,1421.798950 1718.017334,1455.129272 1698.745361,1489.791626 
	C1664.177856,1551.964966 1636.815918,1617.175903 1616.082520,1685.156372 
	C1603.191284,1727.423706 1592.729004,1770.294800 1585.650757,1813.980103 
	C1581.350586,1840.519653 1577.088745,1867.031006 1575.055664,1894.887695 
	C1573.649658,1895.884888 1572.889160,1895.912720 1572.128662,1895.940430 
	C1571.961426,1892.544434 1571.794067,1889.148438 1571.629639,1884.405029 
	C1571.194458,1882.552979 1570.756348,1882.048584 1570.318115,1881.544067 
z"/>
<path fill="#CFC0FF" opacity="1.000000" stroke="none" 
	d="
M1572.048706,1896.834473 
	C1572.889160,1895.912720 1573.649658,1895.884888 1574.974121,1895.778564 
	C1575.008667,1901.901611 1574.479370,1908.103149 1573.972290,1915.128540 
	C1573.319214,1909.877808 1572.643921,1903.803223 1572.048706,1896.834473 
z"/>
<path fill="#8E69F2" opacity="1.000000" stroke="none" 
	d="
M1570.296875,1882.033325 
	C1570.756348,1882.048584 1571.194458,1882.552979 1571.517578,1883.561646 
	C1570.802124,1883.715576 1570.426514,1883.201172 1570.296875,1882.033325 
z"/>
</svg>